<?xml version="1.0" encoding="utf-8"?>
<!-- Generator: Adobe Illustrator 27.0.0, SVG Export Plug-In . SVG Version: 6.00 Build 0)  -->
<svg version="1.1" id="Layer_2_00000116225381218743733120000008001377368390328451_"
	 xmlns="http://www.w3.org/2000/svg" xmlns:xlink="http://www.w3.org/1999/xlink" x="0px" y="0px" viewBox="0 0 912.5 568.8"
	 style="enable-background:new 0 0 912.5 568.8;" xml:space="preserve">
<style type="text/css">
	.st0{fill:#A1CBE2;}
	.st1{fill:#3B495D;}
	.st2{fill:#2DB1F2;}
	.st3{fill:#FFFFFD;}
</style>
<g>
	<path class="st0" d="M677.4,129.7L479.7,15.6c-14.4-8.3-32.4-8.3-46.8,0L235.1,129.7c-14.4,8.3-23.4,23.9-23.4,40.5v228.3
		c0,16.7,9,32.2,23.4,40.5l48.4,27.9l5.8,3.3l30.3,17.5l23.2,13.4l90.1,52c7.2,4.2,15.3,6.2,23.4,6.2c8.1,0,16.2-2.1,23.4-6.2
		l90.2-52.1l23.1-13.4h0l30.3-17.5l5.8-3.4l48.3-27.9c14.4-8.3,23.4-23.9,23.4-40.5V170.2C700.8,153.6,691.8,138,677.4,129.7z"/>
	<path d="M670.3,398.6c0,5.8-3.1,11.2-8.1,14.1l-46.7,26.9l-5.8,3.4l-53.4,30.8l-1.2,0.7l-90.7,52.4c-5,2.9-11.3,2.9-16.3,0
		l-90.6-52.3l-1.2-0.7L302.9,443l-5.8-3.3l-46.7-27c-5-2.9-8.1-8.3-8.1-14.1V170.2c0-5.8,3.1-11.2,8.1-14.1L448.1,42
		c2.5-1.4,5.3-2.2,8.1-2.2s5.6,0.7,8.1,2.2l197.7,114.2c5,2.9,8.1,8.3,8.1,14.1V398.6z"/>
	<path class="st1" d="M670.3,170.2v228.3c0,5.8-3.1,11.2-8.1,14.1l-46.7,26.9l-5.8,3.4l-53.4,30.8l-1.2,0.7l-90.7,52.4
		c-5,2.9-11.3,2.9-16.3,0l-90.6-52.3l-1.2-0.7L302.9,443l-5.8-3.3l-46.7-27c-5-2.9-8.1-8.3-8.1-14.1V170.2c0-5.8,3.1-11.2,8.1-14.1
		L448.1,42c2.5-1.4,5.3-2.2,8.1-2.2s5.6,0.7,8.1,2.2l197.7,114.2C667.2,159,670.3,164.4,670.3,170.2z"/>
	<path class="st2" d="M611,263.5c-3.1,5.6-6.1,11.3-9.2,17c-8.8,16.3-17.7,32.5-26.5,48.8c-0.8,1.5-1.7,2.1-3.5,2.1
		c-47.4-0.1-94.8,0-142.3-0.1c-1.9,0-2.8,0.5-3.6,2.2c-1.8,4.1-3.9,8-5.9,12c-0.8,1.6-0.6,2,1.3,2c17.3-0.1,34.6,0,51.9-0.1
		c2,0,2.9,0.6,3.8,2.3c9.3,18.9,18.6,37.7,27.9,56.5c1.1,2.3,2.2,4.5,3.4,6.8c0.6,1.2,0.3,1.5-0.9,1.5c-4.7,0-9.4,0-14.1,0
		c-35,0-70.1,0-105.1,0c-1.8,0-2.6,0.5-3.4,2.1c-9.4,19.1-18.9,38.2-28.3,57.2c-2.4,4.9-4.8,9.7-7.2,14.6c-2,4.1-4.1,8.3-6.1,12.4
		c-0.1,0.2-0.2,0.3-0.2,0.4l-23.2-13.4l-30.3-17.5l-5.8-3.3c2.1-4.3,4.2-8.5,6.4-12.8c2.4-4.9,4.8-9.7,7.2-14.6
		c5.7-11.5,11.4-23,17.1-34.5c17.8-35.8,35.6-71.7,53.4-107.6c5.4-11,10.9-21.9,16.3-32.9c0.7-1.3,1.4-1.7,2.8-1.7
		c74.1,0,148.2,0,222.3,0C609.6,263.1,610.3,262.8,611,263.5z"/>
	<path class="st3" d="M629.1,467l-5.8,3.4L593,487.8h0l-23.1,13.4c0-0.1-0.1-0.1-0.1-0.2c-2.1-4.2-4.2-8.4-6.2-12.6
		c-2.4-4.9-4.8-9.7-7.2-14.6c-12.2-24.7-24.5-49.4-36.7-74c-8.1-16.3-16.2-32.6-24.3-48.9c-0.2-0.4-0.4-0.8-0.6-1.2
		c-1-2.2-1-2.2,1.4-2.2c23.9,0,47.7,0,71.6,0c1.3,0,2.2,0.1,2.9,1.5c15,30.2,29.9,60.4,44.9,90.6c2.4,4.9,4.8,9.7,7.2,14.6
		C624.8,458.4,627,462.7,629.1,467z"/>
	<path class="st3" d="M456.4,119.1c5.6,11.2,10.9,22,16.3,32.8c16.4,33.1,32.8,66.1,49.3,99.2c1.3,2.7,1.4,2.7-1.7,2.7
		c-42.8,0-85.6,0-128.4,0c-2.5,0-2.5,0-1.5-2c17.6-35.5,35.3-71,52.9-106.6c4.1-8.3,8.2-16.6,12.4-25
		C455.8,120,456,119.7,456.4,119.1z"/>
</g>
</svg>
